<svg width="1728" height="613" viewBox="0 0 1728 613" fill="none" xmlns="http://www.w3.org/2000/svg">
<path d="M829.063 15.2656C1084.11 -10.4121 1347.28 -10.4135 1717.14 92.2969C1902.17 143.681 1994.56 174.905 2029.13 192.823C2033.44 195.058 2036.83 197.074 2039.38 198.883C2041.94 200.701 2043.58 202.271 2044.48 203.596C2045.36 204.906 2045.43 205.833 2045.13 206.531C2044.81 207.303 2043.92 208.121 2042.19 208.887C2038.76 210.411 2032.78 211.395 2024.65 211.875C2016.57 212.352 2006.49 212.326 1994.94 211.896C1948.74 210.18 1879.41 202.045 1821.6 194.334C1792.7 190.479 1766.69 186.732 1747.9 183.948C1738.51 182.556 1730.92 181.405 1725.68 180.603C1723.07 180.201 1721.03 179.887 1719.66 179.673C1718.97 179.566 1718.44 179.484 1718.09 179.429C1717.92 179.401 1717.78 179.38 1717.69 179.366C1717.65 179.359 1717.61 179.354 1717.59 179.351C1717.58 179.349 1717.57 179.348 1717.57 179.347C1717.56 179.346 1717.56 179.345 1717.4 180.333L1717.56 179.346L1717.36 179.315L1717.17 179.36L1717.38 180.23C1717.17 179.361 1717.17 179.361 1717.17 179.361C1717.17 179.362 1717.16 179.363 1717.16 179.364C1717.14 179.367 1717.12 179.371 1717.1 179.377C1717.05 179.389 1716.97 179.406 1716.87 179.43C1716.67 179.476 1716.37 179.546 1715.97 179.637C1715.17 179.819 1713.98 180.089 1712.4 180.437C1709.25 181.132 1704.57 182.138 1698.47 183.388C1686.25 185.886 1668.34 189.352 1645.53 193.217C1599.9 200.947 1534.69 210.277 1456.38 216.67C1300.98 229.357 1094 230.477 886.035 184.616L876.2 182.431C667.758 136.495 446.924 136.591 277.772 148.252C192.524 154.129 120.39 162.945 69.5652 170.292C44.1529 173.965 24.0669 177.271 10.3328 179.659C3.46584 180.853 -1.81376 181.818 -5.3772 182.484C-7.15892 182.818 -8.51238 183.076 -9.42017 183.251C-9.48109 183.263 -9.54001 183.274 -9.59692 183.285V92.3311C327.367 92.2297 574.285 40.916 829.063 15.2656Z" fill="#824789" stroke="#E28EFF" stroke-width="2"/>
<path d="M-3.99609 182.622C435.675 117.749 872.843 111.509 1200.1 124.609C1363.73 131.16 1499.86 142.545 1595.06 153.848C1642.67 159.5 1680.01 165.128 1705.44 170.116C1718.16 172.612 1727.84 174.937 1734.32 177.009C1737.57 178.049 1739.91 178.997 1741.42 179.828C1742.17 180.247 1742.62 180.585 1742.85 180.819C1742.88 180.85 1742.9 180.877 1742.92 180.898C1742.99 181.831 1743.45 182.604 1743.93 183.179C1744.46 183.823 1745.17 184.422 1745.97 184.984C1747.58 186.112 1749.87 187.306 1752.67 188.558C1758.3 191.071 1766.39 193.974 1776.32 197.176C1796.2 203.585 1823.7 211.263 1854.21 219.484C1915.27 235.941 1988.41 254.579 2037.18 269.665C2049.36 273.435 2059.99 276.974 2068.52 280.194C2077.09 283.431 2083.39 286.294 2087 288.685C2088.86 289.919 2089.69 290.828 2089.94 291.352C2089.97 291.405 2089.98 291.444 2089.99 291.471C2089.96 291.516 2089.88 291.599 2089.73 291.715C2089.07 292.231 2087.6 292.852 2084.92 293.398C2082.3 293.93 2078.78 294.344 2074.25 294.618C2037.86 296.82 1940.44 289.737 1745.13 267.515C964.056 178.644 476.138 267.502 -4.28809 267.502C-124.519 267.502 -239.623 270.061 -330.878 271.87C-376.511 272.775 -416.172 273.492 -447.537 273.609C-478.946 273.726 -501.911 273.239 -514.23 271.759C-517.308 271.389 -519.634 270.967 -521.23 270.504C-521.709 270.365 -522.095 270.228 -522.4 270.102C-521.41 269.446 -519.657 268.633 -516.97 267.682C-506.017 263.806 -482.086 258.465 -442.65 251.251C-363.892 236.844 -223.917 215.071 -3.99609 182.622Z" fill="#612669" stroke="white" stroke-width="4"/>
<path d="M-1 266.352C341.548 211.079 775.057 196.452 1123.05 202.788C1297.19 205.958 1449.89 214.377 1559.05 225.575C1613.63 231.174 1657.3 237.465 1687.31 244.135C1702.32 247.472 1713.86 250.894 1721.63 254.349C1725.52 256.079 1728.4 257.792 1730.3 259.468C1732.21 261.151 1733 262.683 1733 264.06V354.399C1261.99 283.919 888.96 285.599 -1 355.918V266.352Z" fill="#5D3561" stroke="#D371B9" stroke-width="2"/>
<path d="M0 347.567C705.546 202.441 1086.68 200.518 1739 347.567V436.497C1030.03 487.833 649.268 487.835 0 436.497V347.567Z" fill="white" fill-opacity="0.23"/>
<path d="M1.5 348.79C705.67 204.034 1086.49 202.118 1737.5 348.767V435.101C1029.99 486.294 649.42 486.299 1.5 435.11V348.79Z" stroke="white" stroke-opacity="0.5" stroke-width="3"/>
<rect x="-3" y="524" width="1728" height="89" fill="white" fill-opacity="0.03"/>
<path d="M0 434.863C480.479 317.48 905.313 345.556 1728 434.863V523.863H0V434.863Z" fill="white" fill-opacity="0.07"/>
</svg>
