<svg width="1728" height="932" viewBox="0 0 1728 932" fill="none" xmlns="http://www.w3.org/2000/svg">
<path d="M-354.807 346.925C152.085 481.498 39.8102 355.417 191.833 328.766C343.856 302.115 444.873 139.629 502.714 245.004C560.554 350.378 627.925 297.637 736.697 412.658C925.539 612.348 1116.41 573.816 1201.79 379.027C1287.17 184.238 1358.69 402.696 1392.11 296.628C1405.78 253.233 1751.78 430.794 1702.35 287.969C1784.82 285.331 1747.7 369.371 1747.7 369.371C1507.67 478.949 1464.99 371.873 1407.77 396.71C1350.55 421.547 1190.79 391.148 1172.95 536.049C1155.11 680.951 866.555 590.494 780.463 549.089C694.371 507.684 760.172 396.129 604.031 423.57C447.889 451.011 596.75 171.171 367.957 343.199C139.163 515.227 223.787 363.207 150.603 414.278C77.4192 465.35 56.4717 543.244 -55.967 517.291C-168.406 491.338 -70.6156 468.82 -232.857 449.496C-395.097 430.171 -357.608 435.474 -370.359 433.118L-354.807 346.925Z" fill="#5D3561" fill-opacity="0.71"/>
<path d="M1702.35 287.969C1751.78 430.794 1405.78 253.233 1392.11 296.628C1358.69 402.696 1287.17 184.238 1201.79 379.027C1116.41 573.816 925.539 612.348 736.697 412.658C627.925 297.637 560.555 350.378 502.714 245.004C444.873 139.629 343.856 302.115 191.833 328.766C39.8102 355.417 152.085 481.498 -354.807 346.925L-370.359 433.118C-357.608 435.474 -395.097 430.171 -232.857 449.496C-70.6157 468.82 -168.406 491.338 -55.967 517.291C56.4717 543.244 77.4192 465.35 150.603 414.278C223.787 363.207 139.163 515.227 367.957 343.199C596.75 171.171 447.889 451.011 604.031 423.57C760.172 396.129 694.371 507.684 780.463 549.089C866.555 590.494 1155.11 680.951 1172.95 536.049C1190.79 391.148 1350.55 421.547 1407.77 396.71C1464.99 371.873 1507.67 478.949 1747.7 369.371M1702.35 287.969C1784.82 285.331 1747.7 369.371 1747.7 369.371M1702.35 287.969L1747.7 369.371" stroke="#824789" stroke-width="2"/>
<path d="M-24.1157 390.133C282.717 374.735 82.6358 280.236 327.896 348.205C573.157 416.175 536.73 562.695 674.968 526.91C813.206 491.126 897.177 478.288 978.293 367.919C1059.41 257.551 1346.69 324.04 1342.2 413.197C1337.72 502.353 1415.25 524.237 1455.09 507.004C1504.89 485.462 1620.94 398.628 1710.15 403.611C1781.52 407.598 1812.92 391.37 1812.92 391.37C1603.53 277.839 1554.81 401.469 1504.91 375.69C1455.01 349.91 1317.33 377.706 1299.53 232.476C1281.73 87.2451 1033.63 173.007 959.842 213.015C886.056 253.022 944.793 365.683 809.294 335.681C673.794 305.68 807.124 588.026 606.421 412.213C405.719 236.399 481.398 389.843 417.264 337.561C353.131 285.279 333.739 207.023 236.912 231.145C140.086 255.266 225.035 279.388 85.0246 296.065C-54.9857 312.741 -22.6469 308.05 -33.6366 310.198L-24.1157 390.133Z" fill="#824789"/>
<path d="M-181.807 521.308C325.085 386.734 212.81 512.815 364.833 539.466C516.856 566.117 617.873 728.603 675.714 623.229C733.555 517.854 800.925 570.595 909.698 455.574C1098.54 255.884 1289.41 294.416 1374.79 489.205C1460.17 683.994 1531.69 465.537 1565.11 571.605C1578.78 614.999 1924.78 437.438 1875.36 580.264C1957.82 582.901 1920.7 498.861 1920.7 498.861C1680.67 389.283 1637.99 496.359 1580.77 471.522C1523.55 446.685 1363.79 477.085 1345.95 332.183C1328.11 187.282 1039.55 277.738 953.463 319.143C867.371 360.548 891.641 417.329 735.5 389.888C579.359 362.447 807.105 514.973 585.969 434.431C364.833 353.888 396.787 505.026 323.603 453.954C250.419 402.882 229.472 324.989 117.033 350.942C4.59438 376.895 102.384 399.412 -59.8565 418.736C-222.097 438.061 -184.608 432.758 -197.359 435.114L-181.807 521.308Z" fill="#FDFDFD" fill-opacity="0.35"/>
<path d="M1875.36 580.264C1924.78 437.438 1578.78 614.999 1565.11 571.605C1531.69 465.537 1460.17 683.994 1374.79 489.205C1289.41 294.416 1098.54 255.884 909.698 455.574C800.925 570.595 733.555 517.854 675.714 623.229C617.873 728.603 516.856 566.117 364.833 539.466C212.81 512.815 325.085 386.734 -181.807 521.308L-197.359 435.114C-184.608 432.758 -222.097 438.061 -59.8565 418.736C102.384 399.412 4.59438 376.895 117.033 350.942C229.472 324.989 250.419 402.882 323.603 453.954C396.787 505.026 364.833 353.888 585.969 434.431C807.105 514.973 579.359 362.447 735.5 389.888C891.641 417.329 867.371 360.548 953.463 319.143C1039.56 277.738 1328.11 187.282 1345.95 332.183C1363.79 477.085 1523.55 446.685 1580.77 471.522C1637.99 496.359 1680.67 389.283 1920.7 498.861M1875.36 580.264C1957.82 582.901 1920.7 498.861 1920.7 498.861M1875.36 580.264L1920.7 498.861" stroke="white" stroke-width="2"/>
<path d="M119.162 342.978C470.778 324.186 392.67 452.697 512.451 381.564C632.233 310.432 717.577 215.508 877.698 170.214C1037.82 124.92 1001.15 271.372 1148.22 339.703C1282.43 402.059 1428.66 480.295 1607.74 335.556C1786.83 190.817 1875.01 286.709 1919.39 304.455C1974.87 326.638 1957.09 319.335 2055.9 315.529C2134.95 312.484 2124.83 356.323 2124.83 356.323C1894.26 467.026 1853.89 360.225 1798.92 385.331C1743.96 410.438 1591.01 380.848 1573.19 525.753C1555.37 670.657 1279.28 581.685 1196.98 540.731C1114.67 499.778 1178.29 387.961 1028.51 416.161C878.735 444.36 1022.79 163.947 802.665 337.008C582.543 510.069 664.398 357.719 594.008 409.124C523.618 460.528 503.156 538.479 395.527 513.099C287.898 487.719 381.729 464.73 226.338 446.222C70.9474 427.713 106.85 432.827 94.6417 430.535L119.162 342.978Z" fill="#612669" fill-opacity="0.66"/>
<path d="M2055.9 315.529C1957.09 319.335 1974.87 326.638 1919.39 304.455C1875.01 286.709 1786.83 190.817 1607.74 335.556C1428.66 480.295 1282.43 402.059 1148.22 339.703C1001.15 271.372 1037.82 124.92 877.698 170.214C717.577 215.508 632.233 310.432 512.451 381.564C392.67 452.697 470.778 324.186 119.162 342.978L94.6417 430.535C106.85 432.827 70.9474 427.713 226.338 446.222C381.729 464.73 287.898 487.719 395.527 513.099C503.156 538.479 523.618 460.528 594.008 409.124C664.398 357.719 582.543 510.069 802.665 337.008C1022.79 163.947 878.735 444.36 1028.51 416.161C1178.29 387.961 1114.67 499.778 1196.98 540.731C1279.28 581.685 1555.37 670.657 1573.19 525.753C1591.01 380.848 1743.96 410.438 1798.92 385.331C1853.89 360.225 1894.26 467.026 2124.83 356.323M2055.9 315.529C2134.95 312.484 2124.83 356.323 2124.83 356.323M2055.9 315.529L2124.83 356.323" stroke="#D371B9"/>
<path d="M-88.7602 466.869C240.001 445.354 166.001 574.354 278.501 502.354C391.001 430.354 494.5 409.888 657 311.888C819.5 213.888 766 318.888 883.5 425.388C1178.56 692.825 1331.5 484.82 1394 424.354C1456.5 363.888 1557.15 402.388 1602 402.388C1679 402.388 1630.62 406.961 1723 402.388C1796.9 398.73 1785.6 464.573 1785.6 464.573C1569.25 576.97 1532.35 470.583 1480.79 496.094C1429.22 521.605 1374.28 454.979 1356.5 599.888C1338.72 744.797 993.606 696.314 917.007 656.04C840.407 615.766 900.732 503.557 760.533 532.898C620.334 562.238 757.147 280.963 550.077 455.578C343.006 630.193 420.694 477.347 354.507 529.253C288.321 581.158 268.591 659.196 168.201 634.678C67.8102 610.16 155.682 586.461 10.6004 569.181C-134.481 551.9 -100.967 556.73 -112.359 554.535L-88.7602 466.869Z" fill="#5D3E7F" fill-opacity="0.6"/>
<path d="M1723 402.388C1630.62 406.961 1679 402.388 1602 402.388C1557.15 402.388 1456.5 363.888 1394 424.354C1331.5 484.82 1178.56 692.825 883.5 425.388C766 318.888 819.5 213.888 657 311.888C494.5 409.888 391.001 430.354 278.501 502.354C166.001 574.354 240.001 445.354 -88.7602 466.869L-112.359 554.535C-100.967 556.73 -134.481 551.9 10.6004 569.181C155.682 586.461 67.8102 610.16 168.201 634.678C268.591 659.196 288.321 581.158 354.507 529.253C420.694 477.347 343.006 630.193 550.077 455.578C757.147 280.963 620.334 562.238 760.533 532.898C900.732 503.557 840.407 615.766 917.007 656.04C993.606 696.314 1338.72 744.797 1356.5 599.888C1374.28 454.979 1429.22 521.605 1480.79 496.094C1532.35 470.583 1569.25 576.97 1785.6 464.573M1723 402.388C1796.9 398.73 1785.6 464.573 1785.6 464.573M1723 402.388L1785.6 464.573" stroke="white" stroke-opacity="0.63"/>
<path d="M-124.402 569.241C213.248 548.786 111.965 721.978 252.982 605.933C394 489.888 547.5 459.888 641.178 416.622C734.856 373.355 783.954 478.591 905.002 585.513C1208.97 854.011 1331.49 580.675 1395.5 520.388C1459.51 460.102 1566.15 510.079 1612.22 510.224C1691.32 510.474 1641.64 514.891 1736.52 510.617C1812.42 507.198 1801.03 573.029 1801.03 573.029C1579.15 684.767 1540.9 578.219 1488.01 603.573C1435.13 628.927 1378.47 562.097 1360.68 707.004C1342.88 851.911 988.205 802.289 909.387 761.751C830.57 721.212 892.174 609.156 748.25 638.053C604.326 666.949 743.954 386.009 531.807 560.02C319.661 734.031 398.969 581.378 331.148 633.088C263.326 684.799 243.312 762.803 140.106 737.95C36.9 713.097 127.089 689.674 -22.0018 671.916C-171.093 654.158 -136.65 659.098 -148.359 656.866L-124.402 569.241Z" fill="#5D3E7F" fill-opacity="0.11"/>
<path d="M-24.1157 291.563C282.717 306.961 82.6358 401.46 327.896 333.491C573.157 265.521 536.73 119.002 674.968 154.786C813.206 190.57 897.177 203.408 978.293 313.777C1059.41 424.145 1346.69 357.656 1342.2 268.5C1337.72 179.343 1415.25 157.459 1455.09 174.693C1504.89 196.234 1620.94 283.068 1710.15 278.085C1781.52 274.099 1812.92 290.326 1812.92 290.326C1603.53 403.857 1554.81 280.227 1504.91 306.006C1455.01 331.786 1317.33 303.99 1299.53 449.221C1281.73 594.451 1033.63 508.689 959.842 468.682C886.056 428.674 944.793 316.014 809.294 346.015C673.794 376.016 807.124 93.6705 606.421 269.484C405.719 445.297 481.398 291.854 417.264 344.135C353.131 396.417 333.739 474.673 236.912 450.551C140.086 426.43 225.035 402.308 85.0246 385.632C-54.9857 368.955 -22.6469 373.646 -33.6366 371.498L-24.1157 291.563Z" fill="#824789"/>
<path d="M1710.15 278.085C1620.94 283.068 1504.89 196.234 1455.09 174.693C1415.25 157.459 1337.72 179.343 1342.2 268.5C1346.69 357.656 1059.41 424.145 978.293 313.777C897.177 203.408 813.206 190.57 674.968 154.786C536.73 119.002 573.157 265.521 327.896 333.491C82.6358 401.46 282.717 306.961 -24.1157 291.563L-33.6366 371.498C-22.6469 373.646 -54.9857 368.955 85.0246 385.632C225.035 402.308 140.086 426.43 236.912 450.551C333.739 474.673 353.131 396.417 417.264 344.135C481.398 291.854 405.719 445.297 606.421 269.484C807.124 93.6705 673.794 376.016 809.294 346.015C944.793 316.014 886.056 428.674 959.842 468.682C1033.63 508.689 1281.73 594.451 1299.53 449.221C1317.33 303.99 1455.01 331.786 1504.91 306.006C1554.81 280.227 1603.53 403.857 1812.92 290.326M1710.15 278.085C1781.52 274.099 1812.92 290.326 1812.92 290.326M1710.15 278.085L1812.92 290.326" stroke="white" stroke-width="3"/>
<path d="M-34.7614 359.403C294 337.888 220 466.888 332.5 394.888C444.999 322.888 525.5 227.388 675.499 180.888C825.499 134.388 790.084 280.991 927 348.112C1051.95 409.364 1188 486.388 1356.5 340.388C1525 194.388 1606.66 289.504 1648 306.888C1699.68 328.618 1683.12 321.461 1775.5 316.888C1849.4 313.23 1839.6 357.107 1839.6 357.107C1623.25 469.504 1586.35 363.117 1534.79 388.628C1483.22 414.139 1340.51 385.769 1322.72 530.678C1304.94 675.587 1047.6 588.848 971.006 548.574C894.406 508.3 954.731 396.091 814.532 425.432C674.333 454.772 811.146 173.497 604.076 348.112C397.005 522.727 474.692 369.881 408.506 421.787C342.32 473.692 322.59 551.73 222.199 527.212C121.809 502.694 209.68 478.995 64.5992 461.715C-80.482 444.434 -46.9682 449.264 -58.3597 447.069L-34.7614 359.403Z" fill="#612669" fill-opacity="0.66"/>
<path d="M1775.5 316.888C1683.12 321.461 1699.68 328.618 1648 306.888C1606.66 289.504 1525 194.388 1356.5 340.388C1188 486.388 1051.95 409.364 927 348.112C790.083 280.991 825.499 134.388 675.499 180.888C525.5 227.388 445 322.888 332.5 394.888C220 466.888 294 337.888 -34.7614 359.403L-58.3597 447.069C-46.9682 449.264 -80.482 444.434 64.5992 461.715C209.68 478.995 121.809 502.694 222.199 527.212C322.59 551.73 342.32 473.692 408.506 421.787C474.692 369.881 397.005 522.727 604.076 348.112C811.146 173.497 674.333 454.772 814.532 425.432C954.731 396.091 894.406 508.3 971.006 548.574C1047.6 588.848 1304.94 675.587 1322.72 530.678C1340.51 385.769 1483.22 414.139 1534.79 388.628C1586.35 363.117 1623.25 469.504 1839.6 357.107M1775.5 316.888C1849.4 313.23 1839.6 357.107 1839.6 357.107M1775.5 316.888L1839.6 357.107" stroke="#D371B9"/>
</svg>
