<svg width="1728" height="1075" viewBox="0 0 1728 1075" fill="none" xmlns="http://www.w3.org/2000/svg">
<path d="M954.108 2.47461C956.125 0.736385 958.791 0.097428 962.296 0.75C965.819 1.40606 970.157 3.36498 975.433 6.78711C980.702 10.2054 986.878 15.0642 994.072 21.4863C1022.86 47.1831 1067.8 97.756 1136.06 180.613C1409.14 512.068 1565.28 597.87 1653.19 636.179C1675.19 645.764 1692.82 652.34 1707 659.068C1721.16 665.785 1731.76 672.604 1739.62 682.601C1747.48 692.596 1752.65 705.816 1755.85 725.404C1759.05 744.997 1760.27 770.923 1760.27 806.296C1760.27 877.091 1773.61 931.164 1779.14 975.623C1784.67 1020.1 1782.4 1054.98 1751.39 1087.76C1720.33 1120.61 1660.38 1151.39 1550.29 1187.39C1440.23 1223.38 1280.14 1264.57 1048.9 1318.27C817.78 1371.94 579.256 1335.02 370.629 1254.28C162 1173.53 -16.6916 1048.97 -128.137 927.414C-183.862 866.634 -222.748 806.631 -240.176 753.26C-257.602 699.894 -253.555 653.233 -223.548 618.995C-193.517 584.73 -137.377 562.778 -50.3115 559.113C36.7392 555.449 154.614 570.072 307.991 608.854C614.829 686.437 786.085 657.096 878.798 579.563C971.514 502.029 985.493 376.459 978.202 262.104C974.556 204.911 965.586 150.477 958.454 106.198C954.887 84.054 951.782 64.4576 950.028 48.3174C948.273 32.1602 947.881 19.5337 949.706 11.2969C950.618 7.18008 952.069 4.23299 954.108 2.47461Z" fill="#46157A" fill-opacity="0.42" stroke="black"/>
<path d="M1047.05 227.995C1048.54 226.711 1050.56 226.169 1053.44 226.704C1056.37 227.249 1060.08 228.902 1064.71 231.905C1069.33 234.897 1074.76 239.169 1081.12 244.845C1106.6 267.573 1146.43 312.362 1207.01 385.858C1449.4 679.919 1588.08 756.139 1666.28 790.198C1685.89 798.737 1701.42 804.52 1714 810.485C1726.5 816.416 1735.73 822.379 1742.56 831.056C1749.39 839.729 1753.93 851.261 1756.75 868.535C1759.57 885.824 1760.66 908.745 1760.66 940.107C1760.66 1002.98 1772.52 1051.13 1777.41 1090.42C1782.3 1129.75 1780.26 1160.29 1753.07 1189.02C1725.71 1217.93 1672.75 1245.17 1575.07 1277.1C1477.45 1309 1335.43 1345.52 1130.24 1393.15C925.412 1440.69 713.976 1408 528.989 1336.44C343.997 1264.88 185.574 1154.49 86.8027 1046.81C37.4097 992.967 3.00864 939.88 -12.3916 892.742C-27.7867 845.62 -24.1401 804.673 2.1543 774.687C28.5203 744.619 77.9792 725.181 155.127 721.936C232.23 718.692 336.717 731.637 472.767 766.02C745.116 834.848 897.532 808.935 980.213 739.828C1062.9 670.714 1075.27 558.872 1068.8 457.394C1065.56 406.61 1057.59 358.282 1051.26 319.02C1048.1 299.373 1045.35 282.022 1043.79 267.739C1042.23 253.405 1041.91 242.365 1043.49 235.248C1044.28 231.695 1045.49 229.34 1047.05 227.995Z" fill="url(#paint0_linear_12_4)" fill-opacity="0.2" stroke="white" stroke-width="3"/>
<path d="M1107.83 361.322C1109.16 360.178 1110.95 359.715 1113.43 360.176C1115.94 360.644 1119.1 362.056 1123.02 364.591C1126.92 367.118 1131.5 370.722 1136.87 375.503C1158.33 394.643 1191.88 432.347 1242.89 494.187C1446.97 741.599 1563.71 805.704 1629.51 834.342C1646 841.518 1659.1 846.396 1669.7 851.416C1680.24 856.413 1688.06 861.451 1693.84 868.799C1699.63 876.144 1703.46 885.896 1705.84 900.456C1708.22 915.025 1709.14 934.33 1709.14 960.722C1709.14 1013.6 1719.12 1054.07 1723.24 1087.17C1727.36 1120.29 1725.65 1146.09 1702.68 1170.35C1679.59 1194.73 1634.94 1217.66 1552.68 1244.53C1470.48 1271.38 1350.89 1302.11 1178.11 1342.19C1005.57 1382.21 827.486 1354.68 671.689 1294.46C515.889 1234.23 382.459 1141.32 299.262 1050.69C257.658 1005.36 228.666 960.661 215.683 920.948C202.703 881.246 205.759 846.683 227.982 821.357C250.253 795.977 291.988 779.613 356.976 776.881C421.933 774.15 509.94 785.048 624.509 813.982C853.813 871.893 982.038 850.062 1051.55 791.998C1121.08 733.929 1131.5 639.937 1126.05 554.562C1123.32 511.846 1116.62 471.192 1111.29 438.153C1108.62 421.624 1106.31 407.016 1105 394.99C1103.69 382.93 1103.41 373.601 1104.75 367.566C1105.41 364.552 1106.46 362.507 1107.83 361.322Z" fill="url(#paint1_linear_12_4)" fill-opacity="0.2" stroke="#9E8CA5" stroke-width="2"/>
<path d="M1138.35 446.141C1139.49 445.157 1141.03 444.751 1143.19 445.154C1145.39 445.564 1148.16 446.803 1151.61 449.041C1155.05 451.272 1159.09 454.454 1163.82 458.68C1182.77 475.599 1212.38 508.936 1257.41 563.625C1437.59 782.434 1540.66 839.137 1598.77 864.473C1613.33 870.823 1624.89 875.132 1634.24 879.571C1643.55 883.987 1650.43 888.433 1655.52 894.91C1660.61 901.385 1663.99 909.988 1666.09 922.854C1668.19 935.728 1669 952.792 1669 976.131C1669 1022.91 1677.81 1058.71 1681.45 1087.96C1685.08 1117.25 1683.57 1140.02 1663.33 1161.43C1642.96 1182.97 1603.57 1203.25 1530.96 1227C1458.39 1250.75 1352.82 1277.93 1200.28 1313.37C1048 1348.75 890.803 1324.42 753.278 1271.16C615.75 1217.9 497.972 1135.75 424.537 1055.61C387.815 1015.54 362.231 976.021 350.776 940.922C339.325 905.834 342.03 875.315 361.612 852.96C381.242 830.551 418.046 816.083 475.405 813.667C532.735 811.253 610.418 820.888 711.556 846.475C913.998 897.689 1027.25 878.396 1088.66 827.009C1150.08 775.617 1159.28 692.444 1154.47 616.938C1152.06 579.155 1146.14 543.198 1141.44 513.98C1139.08 499.362 1137.04 486.447 1135.88 475.815C1134.73 465.15 1134.48 456.917 1135.66 451.601C1136.25 448.946 1137.16 447.165 1138.35 446.141Z" fill="url(#paint2_linear_12_4)" fill-opacity="0.2" stroke="#2D0459" stroke-width="2"/>
<path d="M1181.94 545.606C1183.06 544.639 1184.55 544.269 1186.56 544.643C1188.58 545.02 1191.09 546.15 1194.17 548.147C1197.24 550.141 1200.84 552.979 1205.04 556.735C1221.86 571.77 1248.14 601.372 1288.06 649.893C1447.79 843.999 1539.13 894.265 1590.58 916.714C1603.47 922.334 1613.76 926.176 1622.05 930.115C1630.32 934.043 1636.48 938.019 1641.05 943.835C1645.62 949.65 1648.63 957.355 1650.5 968.806C1652.37 980.261 1653.08 995.428 1653.08 1016.14C1653.08 1057.61 1660.89 1089.31 1664.12 1115.32C1667.35 1141.34 1666.02 1161.69 1647.95 1180.82C1629.82 1200 1594.81 1218.02 1530.42 1239.1C1466.06 1260.17 1372.44 1284.29 1237.2 1315.73C1102.08 1347.15 962.622 1325.54 840.635 1278.27C718.645 1231 614.165 1158.07 549.01 1086.92C516.43 1051.34 493.707 1016.23 483.527 985.019C473.349 953.81 475.727 926.573 493.212 906.599C510.72 886.598 543.484 873.749 594.382 871.604C645.265 869.46 714.183 878.018 803.875 900.725C983.344 946.159 1083.59 928.999 1137.9 883.531C1192.2 838.061 1200.37 764.439 1196.11 697.466C1193.97 663.964 1188.72 632.08 1184.55 606.153C1182.47 593.185 1180.65 581.715 1179.63 572.271C1178.6 562.808 1178.38 555.445 1179.44 550.659C1179.96 548.268 1180.8 546.594 1181.94 545.606Z" fill="url(#paint3_linear_12_4)" fill-opacity="0.2" stroke="#E28EFF"/>
<defs>
<linearGradient id="paint0_linear_12_4" x1="-23" y1="821" x2="1781" y2="821" gradientUnits="userSpaceOnUse">
<stop stop-color="#F4EC80"/>
<stop offset="1" stop-color="#F8E044"/>
</linearGradient>
<linearGradient id="paint1_linear_12_4" x1="1726" y1="860.5" x2="207" y2="860.5" gradientUnits="userSpaceOnUse">
<stop stop-color="#24006C"/>
<stop offset="1" stop-color="#5B09FF"/>
</linearGradient>
<linearGradient id="paint2_linear_12_4" x1="343" y1="887.5" x2="1684" y2="887.5" gradientUnits="userSpaceOnUse">
<stop stop-color="#E442B9"/>
<stop offset="1" stop-color="#930A6E"/>
</linearGradient>
<linearGradient id="paint3_linear_12_4" x1="1071.5" y1="544" x2="1071.5" y2="1331" gradientUnits="userSpaceOnUse">
<stop stop-color="#FBD7F1"/>
<stop offset="1" stop-color="#D371B9"/>
</linearGradient>
</defs>
</svg>
